<svg width="217" height="20" viewBox="0 0 217 20" fill="none" xmlns="http://www.w3.org/2000/svg">
<path d="M0.865601 19.6154L8.25571 0.384615H9.95901L17.3491 19.6154H15.3436L11.937 10.6044H5.70076L2.87109 19.6154H0.865601ZM8.44802 1.81319L5.89307 9.94505H11.6898L8.61285 1.81319H8.44802Z" fill="white"/>
<path d="M26.7621 19.6154V0.934067C26.4874 0.934067 25.9196 0.989012 25.0588 1.0989L19.6742 1.78571V0.384615H35.7181V1.78571L30.3335 1.0989C29.4727 0.989012 28.905 0.934067 28.6302 0.934067V19.6154H26.7621Z" fill="white"/>
<path d="M47.0424 19.6154V0.934067C46.7677 0.934067 46.1999 0.989012 45.3391 1.0989L39.9545 1.78571V0.384615H55.9984V1.78571L50.6138 1.0989C49.753 0.989012 49.1853 0.934067 48.9105 0.934067V19.6154H47.0424Z" fill="white"/>
<path d="M62.6588 19.6154V0.384615H71.0379V1.73077L66.2302 1.0989C65.3878 0.989012 64.82 0.934067 64.527 0.934067V9.31319C64.765 9.31319 65.3328 9.28571 66.2302 9.23077L70.7357 8.95604V10.2198L66.2302 9.94505C65.3328 9.89011 64.765 9.86264 64.527 9.86264V19.0659C64.8566 19.0659 65.4335 19.011 66.2577 18.9011L71.1204 18.2692V19.6154H62.6588Z" fill="white"/>
<path d="M79.0758 0.384615H82.7571C84.6985 0.384615 86.2003 0.796703 87.2626 1.62088C88.3432 2.42674 88.8835 3.56227 88.8835 5.02747C88.8835 6.163 88.5447 7.10623 87.867 7.85714C87.2077 8.60806 86.2461 9.11172 84.9824 9.36813V9.53297C86.1912 9.77106 87.1802 10.3388 87.9494 11.2363C88.7187 12.1337 89.2956 13.2418 89.6802 14.5604C90.0282 15.7692 90.367 16.7125 90.6967 17.3901C91.0447 18.0494 91.4201 18.5256 91.8231 18.8187C92.2443 19.1117 92.7388 19.3223 93.3066 19.4505V19.6154H92.1802C91.3743 19.6154 90.7058 19.4689 90.1747 19.1758C89.6619 18.8828 89.2223 18.3883 88.856 17.6923C88.4897 16.9963 88.1417 16.0348 87.8121 14.8077C87.2809 12.9212 86.5758 11.5842 85.6967 10.7967C84.8176 10.0092 83.7461 9.61538 82.4824 9.61538H82.3176V9.12088H82.4824C85.4311 9.12088 86.9055 7.76557 86.9055 5.05494C86.9055 2.38095 85.5227 1.04396 82.7571 1.04396H80.9439V19.6154H79.0758V0.384615Z" fill="white"/>
<path d="M96.8746 19.6154L104.265 0.384615H105.968L113.358 19.6154H111.353L107.946 10.6044H101.71L98.8801 19.6154H96.8746ZM104.457 1.81319L101.902 9.94505H107.699L104.622 1.81319H104.457Z" fill="white"/>
<path d="M129.615 19.6154V0.384615H131.483V9.28571H143.021V0.384615H144.889V19.6154H143.021V9.94505H131.483V19.6154H129.615Z" fill="white"/>
<path d="M152.867 10C152.867 8.58974 153.115 7.28022 153.609 6.07143C154.122 4.84432 154.827 3.78205 155.725 2.88462C156.64 1.96886 157.703 1.26374 158.911 0.769231C160.138 0.25641 161.457 0 162.867 0C164.278 0 165.587 0.25641 166.796 0.769231C168.023 1.26374 169.085 1.96886 169.983 2.88462C170.899 3.78205 171.604 4.84432 172.098 6.07143C172.611 7.28022 172.867 8.58974 172.867 10C172.867 11.4103 172.611 12.7289 172.098 13.956C171.604 15.1648 170.899 16.2271 169.983 17.1429C169.085 18.0403 168.023 18.7454 166.796 19.2582C165.587 19.7527 164.278 20 162.867 20C161.457 20 160.138 19.7527 158.911 19.2582C157.703 18.7454 156.64 18.0403 155.725 17.1429C154.827 16.2271 154.122 15.1648 153.609 13.956C153.115 12.7289 152.867 11.4103 152.867 10ZM154.955 10C154.955 11.8681 155.285 13.5073 155.944 14.9176C156.604 16.3095 157.529 17.3993 158.719 18.1868C159.91 18.956 161.292 19.3407 162.867 19.3407C164.443 19.3407 165.825 18.956 167.016 18.1868C168.206 17.3993 169.131 16.3004 169.79 14.8901C170.45 13.4799 170.78 11.8498 170.78 10C170.78 8.15018 170.45 6.5293 169.79 5.13736C169.131 3.72711 168.206 2.62821 167.016 1.84066C165.825 1.05311 164.443 0.65934 162.867 0.65934C161.292 0.65934 159.91 1.05311 158.719 1.84066C157.547 2.60989 156.622 3.69963 155.944 5.10989C155.285 6.50183 154.955 8.13187 154.955 10Z" fill="white"/>
<path d="M198.93 0.384615V19.6154H197.062V1.97802H196.898L190.249 14.7253H189.398L181.843 3.48901H181.678L182.282 19.6154H180.414L181.101 0H181.65L190.304 12.8571H190.469L196.952 0.384615H198.93Z" fill="white"/>
<path d="M208.27 19.6154V0.384615H216.649V1.73077L211.841 1.0989C210.999 0.989012 210.431 0.934067 210.138 0.934067V9.31319C210.376 9.31319 210.944 9.28571 211.841 9.23077L216.347 8.95604V10.2198L211.841 9.94505C210.944 9.89011 210.376 9.86264 210.138 9.86264V19.0659C210.467 19.0659 211.044 19.011 211.869 18.9011L216.731 18.2692V19.6154H208.27Z" fill="white"/>
</svg>
