<svg width="216" height="20" viewBox="0 0 216 20" fill="none" xmlns="http://www.w3.org/2000/svg">
<rect width="215.866" height="20" fill="white"/>
<path d="M0 19.6154L7.39011 0.384615H9.09341L16.4835 19.6154H14.478L11.0714 10.6044H4.83516L2.00549 19.6154H0ZM7.58242 1.81319L5.02747 9.94505H10.8242L7.74725 1.81319H7.58242Z" fill="black"/>
<path d="M25.8965 19.6154V0.934067C25.6218 0.934067 25.054 0.989012 24.1932 1.0989L18.8086 1.78571V0.384615H34.8525V1.78571L29.4679 1.0989C28.6071 0.989012 28.0394 0.934067 27.7646 0.934067V19.6154H25.8965Z" fill="black"/>
<path d="M46.1768 19.6154V0.934067C45.9021 0.934067 45.3343 0.989012 44.4735 1.0989L39.0889 1.78571V0.384615H55.1328V1.78571L49.7482 1.0989C48.8874 0.989012 48.3197 0.934067 48.0449 0.934067V19.6154H46.1768Z" fill="black"/>
<path d="M61.7932 19.6154V0.384615H70.1723V1.73077L65.3646 1.0989C64.5222 0.989012 63.9544 0.934067 63.6614 0.934067V9.31319C63.8994 9.31319 64.4672 9.28571 65.3646 9.23077L69.8701 8.95604V10.2198L65.3646 9.94505C64.4672 9.89011 63.8994 9.86264 63.6614 9.86264V19.0659C63.991 19.0659 64.5679 19.011 65.3921 18.9011L70.2548 18.2692V19.6154H61.7932Z" fill="black"/>
<path d="M78.2102 0.384615H81.8915C83.8329 0.384615 85.3347 0.796703 86.397 1.62088C87.4776 2.42674 88.0179 3.56227 88.0179 5.02747C88.0179 6.163 87.6791 7.10623 87.0014 7.85714C86.3421 8.60806 85.3805 9.11172 84.1168 9.36813V9.53297C85.3256 9.77106 86.3146 10.3388 87.0838 11.2363C87.8531 12.1337 88.43 13.2418 88.8146 14.5604C89.1626 15.7692 89.5014 16.7125 89.8311 17.3901C90.1791 18.0494 90.5545 18.5256 90.9575 18.8187C91.3787 19.1117 91.8732 19.3223 92.441 19.4505V19.6154H91.3146C90.5087 19.6154 89.8402 19.4689 89.3091 19.1758C88.7963 18.8828 88.3567 18.3883 87.9904 17.6923C87.6241 16.9963 87.2761 16.0348 86.9465 14.8077C86.4153 12.9212 85.7102 11.5842 84.8311 10.7967C83.952 10.0092 82.8805 9.61538 81.6168 9.61538H81.452V9.12088H81.6168C84.5655 9.12088 86.0399 7.76557 86.0399 5.05494C86.0399 2.38095 84.6571 1.04396 81.8915 1.04396H80.0783V19.6154H78.2102V0.384615Z" fill="black"/>
<path d="M96.009 19.6154L103.399 0.384615H105.102L112.492 19.6154H110.487L107.08 10.6044H100.844L98.0145 19.6154H96.009ZM103.591 1.81319L101.036 9.94505H106.833L103.756 1.81319H103.591Z" fill="black"/>
<path d="M128.749 19.6154V0.384615H130.617V9.28571H142.156V0.384615H144.024V19.6154H142.156V9.94505H130.617V19.6154H128.749Z" fill="black"/>
<path d="M152.002 10C152.002 8.58974 152.249 7.28022 152.744 6.07143C153.256 4.84432 153.962 3.78205 154.859 2.88462C155.775 1.96886 156.837 1.26374 158.046 0.769231C159.273 0.25641 160.592 0 162.002 0C163.412 0 164.722 0.25641 165.93 0.769231C167.158 1.26374 168.22 1.96886 169.117 2.88462C170.033 3.78205 170.738 4.84432 171.233 6.07143C171.745 7.28022 172.002 8.58974 172.002 10C172.002 11.4103 171.745 12.7289 171.233 13.956C170.738 15.1648 170.033 16.2271 169.117 17.1429C168.22 18.0403 167.158 18.7454 165.93 19.2582C164.722 19.7527 163.412 20 162.002 20C160.592 20 159.273 19.7527 158.046 19.2582C156.837 18.7454 155.775 18.0403 154.859 17.1429C153.962 16.2271 153.256 15.1648 152.744 13.956C152.249 12.7289 152.002 11.4103 152.002 10ZM154.09 10C154.09 11.8681 154.419 13.5073 155.079 14.9176C155.738 16.3095 156.663 17.3993 157.853 18.1868C159.044 18.956 160.427 19.3407 162.002 19.3407C163.577 19.3407 164.96 18.956 166.15 18.1868C167.341 17.3993 168.266 16.3004 168.925 14.8901C169.584 13.4799 169.914 11.8498 169.914 10C169.914 8.15018 169.584 6.5293 168.925 5.13736C168.266 3.72711 167.341 2.62821 166.15 1.84066C164.96 1.05311 163.577 0.65934 162.002 0.65934C160.427 0.65934 159.044 1.05311 157.853 1.84066C156.681 2.60989 155.756 3.69963 155.079 5.10989C154.419 6.50183 154.09 8.13187 154.09 10Z" fill="black"/>
<path d="M198.065 0.384615V19.6154H196.197V1.97802H196.032L189.384 14.7253H188.532L180.977 3.48901H180.812L181.417 19.6154H179.548L180.235 0H180.785L189.438 12.8571H189.603L196.087 0.384615H198.065Z" fill="black"/>
<path d="M207.404 19.6154V0.384615H215.783V1.73077L210.975 1.0989C210.133 0.989012 209.565 0.934067 209.272 0.934067V9.31319C209.51 9.31319 210.078 9.28571 210.975 9.23077L215.481 8.95604V10.2198L210.975 9.94505C210.078 9.89011 209.51 9.86264 209.272 9.86264V19.0659C209.602 19.0659 210.179 19.011 211.003 18.9011L215.866 18.2692V19.6154H207.404Z" fill="black"/>
</svg>
